<svg xmlns="http://www.w3.org/2000/svg" width="1040" height="560" viewBox="0 0 1040 560" role="img" aria-label="Semantic trend teaching chart for clean-room">
<rect width="100%" height="100%" fill="#09111f"/>
<rect x="24" y="24" width="992" height="512" rx="18" fill="#101b2e" stroke="#27364d"/>
<text x="48.0" y="56.0" fill="#f4f7fb" font-family="Inter, -apple-system, BlinkMacSystemFont, Segoe UI, sans-serif" font-size="21" font-weight="700" text-anchor="start">Synthetic AI optimism vs doom</text>
<text x="48.0" y="82.0" fill="#94a3b8" font-family="Inter, -apple-system, BlinkMacSystemFont, Segoe UI, sans-serif" font-size="13" font-weight="400" text-anchor="start">Synthetic teaching fixture · 1,485 documents · 9 buckets</text>
<rect x="92" y="104" width="828" height="260" fill="#0c1627" stroke="#203047"/>
<rect x="92" y="382" width="828" height="64" fill="#0a1424" stroke="#203047"/>
<text x="92.0" y="92.0" fill="#94a3b8" font-family="Inter, -apple-system, BlinkMacSystemFont, Segoe UI, sans-serif" font-size="12" font-weight="400" text-anchor="start">Semantic similarity / α</text>
<text x="920.0" y="374.0" fill="#94a3b8" font-family="Inter, -apple-system, BlinkMacSystemFont, Segoe UI, sans-serif" font-size="12" font-weight="400" text-anchor="end">Document count, max 190</text>
<line x1="92.0" y1="299.0" x2="920.0" y2="299.0" stroke="#23344d" stroke-width="1"/>
<text x="76.0" y="303.0" fill="#7f8ea3" font-family="Inter, -apple-system, BlinkMacSystemFont, Segoe UI, sans-serif" font-size="11" font-weight="400" text-anchor="end">0.25</text>
<line x1="92.0" y1="234.0" x2="920.0" y2="234.0" stroke="#23344d" stroke-width="1" stroke-dasharray="4 5"/>
<text x="76.0" y="238.0" fill="#7f8ea3" font-family="Inter, -apple-system, BlinkMacSystemFont, Segoe UI, sans-serif" font-size="11" font-weight="400" text-anchor="end">0.50</text>
<line x1="92.0" y1="169.0" x2="920.0" y2="169.0" stroke="#23344d" stroke-width="1"/>
<text x="76.0" y="173.0" fill="#7f8ea3" font-family="Inter, -apple-system, BlinkMacSystemFont, Segoe UI, sans-serif" font-size="11" font-weight="400" text-anchor="end">0.75</text>
<line x1="92.0" y1="104.0" x2="920.0" y2="104.0" stroke="#23344d" stroke-width="1"/>
<text x="76.0" y="108.0" fill="#7f8ea3" font-family="Inter, -apple-system, BlinkMacSystemFont, Segoe UI, sans-serif" font-size="11" font-weight="400" text-anchor="end">1.00</text>
<text x="100.0" y="122.0" fill="#f87171" font-family="Inter, -apple-system, BlinkMacSystemFont, Segoe UI, sans-serif" font-size="11" font-weight="400" text-anchor="start">doom</text>
<text x="100.0" y="354.0" fill="#60a5fa" font-family="Inter, -apple-system, BlinkMacSystemFont, Segoe UI, sans-serif" font-size="11" font-weight="400" text-anchor="start">optimism</text>
<text x="100.0" y="226.0" fill="#94a3b8" font-family="Inter, -apple-system, BlinkMacSystemFont, Segoe UI, sans-serif" font-size="11" font-weight="400" text-anchor="start">neutral</text>
<g data-layer="volume-bars">
<rect x="118.0" y="396.7" width="40.0" height="49.3" rx="2" fill="#334155" opacity="0.74"/>
<rect x="210.0" y="402.2" width="40.0" height="43.8" rx="2" fill="#334155" opacity="0.74"/>
<rect x="302.0" y="399.5" width="40.0" height="46.5" rx="2" fill="#334155" opacity="0.74"/>
<rect x="394.0" y="404.9" width="40.0" height="41.1" rx="2" fill="#334155" opacity="0.74"/>
<rect x="486.0" y="407.7" width="40.0" height="38.3" rx="2" fill="#334155" opacity="0.74"/>
<rect x="578.0" y="403.6" width="40.0" height="42.4" rx="2" fill="#334155" opacity="0.74"/>
<rect x="670.0" y="400.8" width="40.0" height="45.2" rx="2" fill="#334155" opacity="0.74"/>
<rect x="762.0" y="398.1" width="40.0" height="47.9" rx="2" fill="#334155" opacity="0.74"/>
<rect x="854.0" y="394.0" width="40.0" height="52.0" rx="2" fill="#334155" opacity="0.74"/>
<text x="874.0" y="386.0" fill="#cbd5e1" font-family="Inter, -apple-system, BlinkMacSystemFont, Segoe UI, sans-serif" font-size="11" font-weight="700" text-anchor="middle">190 docs</text>
</g>
<g data-layer="semantic-lines">
<polyline points="138.0,274.3 230.0,278.2 322.0,271.9 414.0,238.4 506.0,238.4 598.0,233.6 690.0,189.5 782.0,190.6 874.0,188.1" fill="none" stroke="#f8fafc" stroke-width="3.2" stroke-linejoin="round" stroke-linecap="round"/>
<polyline points="138.0,176.0 230.0,169.4 322.0,175.5 414.0,200.2 506.0,200.4 598.0,200.2 690.0,220.4 782.0,217.3 874.0,217.3" fill="none" stroke="#60a5fa" stroke-width="1.9" opacity="0.72" stroke-linejoin="round"/>
<polyline points="138.0,220.5 230.0,216.7 322.0,219.1 414.0,197.5 506.0,196.2 598.0,196.8 690.0,166.1 782.0,172.2 874.0,172.8" fill="none" stroke="#f87171" stroke-width="1.9" opacity="0.72" stroke-linejoin="round"/>
<circle cx="138.0" cy="274.3" r="4.5" fill="#f8fafc" stroke="#09111f" stroke-width="1.5"/>
<circle cx="230.0" cy="278.2" r="4.5" fill="#f8fafc" stroke="#09111f" stroke-width="1.5"/>
<circle cx="322.0" cy="271.9" r="4.5" fill="#f8fafc" stroke="#09111f" stroke-width="1.5"/>
<circle cx="414.0" cy="238.4" r="4.5" fill="#f8fafc" stroke="#09111f" stroke-width="1.5"/>
<circle cx="506.0" cy="238.4" r="4.5" fill="#f8fafc" stroke="#09111f" stroke-width="1.5"/>
<circle cx="598.0" cy="233.6" r="4.5" fill="#f8fafc" stroke="#09111f" stroke-width="1.5"/>
<circle cx="690.0" cy="189.5" r="4.5" fill="#f8fafc" stroke="#09111f" stroke-width="1.5"/>
<circle cx="782.0" cy="190.6" r="4.5" fill="#f8fafc" stroke="#09111f" stroke-width="1.5"/>
<circle cx="874.0" cy="188.1" r="4.5" fill="#f8fafc" stroke="#09111f" stroke-width="1.5"/>
</g>
<text x="138.0" y="470.0" fill="#94a3b8" font-family="Inter, -apple-system, BlinkMacSystemFont, Segoe UI, sans-serif" font-size="10" font-weight="400" text-anchor="middle">&#x27;25-01</text>
<text x="506.0" y="470.0" fill="#94a3b8" font-family="Inter, -apple-system, BlinkMacSystemFont, Segoe UI, sans-serif" font-size="10" font-weight="400" text-anchor="middle">&#x27;25-05</text>
<text x="874.0" y="470.0" fill="#94a3b8" font-family="Inter, -apple-system, BlinkMacSystemFont, Segoe UI, sans-serif" font-size="10" font-weight="400" text-anchor="middle">&#x27;25-09</text>
<circle cx="92" cy="496" r="5" fill="#f8fafc"/>
<text x="104.0" y="500.0" fill="#d7dde8" font-family="Inter, -apple-system, BlinkMacSystemFont, Segoe UI, sans-serif" font-size="12" font-weight="400" text-anchor="start">α semantic lean</text>
<rect x="252" y="489" width="15" height="12" fill="#334155" opacity="0.74"/>
<text x="275.0" y="500.0" fill="#d7dde8" font-family="Inter, -apple-system, BlinkMacSystemFont, Segoe UI, sans-serif" font-size="12" font-weight="400" text-anchor="start">document count</text>
<line x1="420.0" y1="496.0" x2="452.0" y2="496.0" stroke="#60a5fa" stroke-width="2"/>
<text x="460.0" y="500.0" fill="#d7dde8" font-family="Inter, -apple-system, BlinkMacSystemFont, Segoe UI, sans-serif" font-size="12" font-weight="400" text-anchor="start">cos optimism</text>
<line x1="592.0" y1="496.0" x2="624.0" y2="496.0" stroke="#f87171" stroke-width="2"/>
<text x="632.0" y="500.0" fill="#d7dde8" font-family="Inter, -apple-system, BlinkMacSystemFont, Segoe UI, sans-serif" font-size="12" font-weight="400" text-anchor="start">cos doom</text>
<text x="92.0" y="532.0" fill="#cbd5e1" font-family="Inter, -apple-system, BlinkMacSystemFont, Segoe UI, sans-serif" font-size="13" font-weight="700" text-anchor="start">Correct reading: optimism to neutral to doom</text>
</svg>