<svg xmlns="http://www.w3.org/2000/svg" width="920" height="430" viewBox="0 0 920 430" role="img" aria-label="Semantic trend teaching chart for clean-room">
<rect width="100%" height="100%" fill="#09111f"/>
<rect x="20" y="20" width="880" height="390" rx="18" fill="#101b2e" stroke="#27364d"/>
<text x="42.0" y="48.0" fill="#f4f7fb" font-family="Inter, -apple-system, BlinkMacSystemFont, Segoe UI, sans-serif" font-size="20" font-weight="700" text-anchor="start">Synthetic AI optimism vs doom</text>
<text x="42.0" y="72.0" fill="#94a3b8" font-family="Inter, -apple-system, BlinkMacSystemFont, Segoe UI, sans-serif" font-size="13" font-weight="400" text-anchor="start">Synthetic teaching fixture · 1,485 documents · 9 buckets</text>
<rect x="72" y="54" width="808" height="300" fill="#0c1627" stroke="#203047"/>
<line x1="72.0" y1="279.0" x2="880.0" y2="279.0" stroke="#23344d" stroke-width="1"/>
<text x="52.0" y="283.0" fill="#7f8ea3" font-family="Inter, -apple-system, BlinkMacSystemFont, Segoe UI, sans-serif" font-size="11" font-weight="400" text-anchor="end">0.25</text>
<line x1="72.0" y1="204.0" x2="880.0" y2="204.0" stroke="#23344d" stroke-width="1" stroke-dasharray="4 5"/>
<text x="52.0" y="208.0" fill="#7f8ea3" font-family="Inter, -apple-system, BlinkMacSystemFont, Segoe UI, sans-serif" font-size="11" font-weight="400" text-anchor="end">0.50</text>
<line x1="72.0" y1="129.0" x2="880.0" y2="129.0" stroke="#23344d" stroke-width="1"/>
<text x="52.0" y="133.0" fill="#7f8ea3" font-family="Inter, -apple-system, BlinkMacSystemFont, Segoe UI, sans-serif" font-size="11" font-weight="400" text-anchor="end">0.75</text>
<text x="48.0" y="62.0" fill="#f87171" font-family="Inter, -apple-system, BlinkMacSystemFont, Segoe UI, sans-serif" font-size="11" font-weight="400" text-anchor="end">doom</text>
<text x="48.0" y="358.0" fill="#60a5fa" font-family="Inter, -apple-system, BlinkMacSystemFont, Segoe UI, sans-serif" font-size="11" font-weight="400" text-anchor="end">optimism</text>
<text x="888.0" y="208.0" fill="#94a3b8" font-family="Inter, -apple-system, BlinkMacSystemFont, Segoe UI, sans-serif" font-size="11" font-weight="400" text-anchor="start">neutral α=0.5</text>
<rect x="55.0" y="282.0" width="34.0" height="72.0" fill="#334155" opacity="0.72"/>
<rect x="156.0" y="290.0" width="34.0" height="64.0" fill="#334155" opacity="0.72"/>
<rect x="257.0" y="286.0" width="34.0" height="68.0" fill="#334155" opacity="0.72"/>
<rect x="358.0" y="294.0" width="34.0" height="60.0" fill="#334155" opacity="0.72"/>
<rect x="459.0" y="298.0" width="34.0" height="56.0" fill="#334155" opacity="0.72"/>
<rect x="560.0" y="292.0" width="34.0" height="62.0" fill="#334155" opacity="0.72"/>
<rect x="661.0" y="288.0" width="34.0" height="66.0" fill="#334155" opacity="0.72"/>
<rect x="762.0" y="284.0" width="34.0" height="70.0" fill="#334155" opacity="0.72"/>
<rect x="863.0" y="278.0" width="34.0" height="76.0" fill="#334155" opacity="0.72"/>
<polyline points="72.0,250.5 173.0,255.0 274.0,247.8 375.0,209.1 476.0,209.1 577.0,203.5 678.0,152.7 779.0,153.9 880.0,151.1" fill="none" stroke="#f8fafc" stroke-width="3" stroke-linejoin="round" stroke-linecap="round"/>
<polyline points="72.0,137.1 173.0,129.4 274.0,136.5 375.0,165.0 476.0,165.2 577.0,165.0 678.0,188.3 779.0,184.7 880.0,184.8" fill="none" stroke="#60a5fa" stroke-width="1.8" opacity="0.65" stroke-linejoin="round"/>
<polyline points="72.0,188.4 173.0,184.1 274.0,186.8 375.0,161.9 476.0,160.4 577.0,161.0 678.0,125.7 779.0,132.7 880.0,133.4" fill="none" stroke="#f87171" stroke-width="1.8" opacity="0.65" stroke-linejoin="round"/>
<circle cx="72.0" cy="250.5" r="4.5" fill="#f8fafc" stroke="#09111f" stroke-width="1.5"/>
<text x="72.0" y="376.0" fill="#94a3b8" font-family="Inter, -apple-system, BlinkMacSystemFont, Segoe UI, sans-serif" font-size="10" font-weight="400" text-anchor="middle">2025-01</text>
<circle cx="173.0" cy="255.0" r="4.5" fill="#f8fafc" stroke="#09111f" stroke-width="1.5"/>
<circle cx="274.0" cy="247.8" r="4.5" fill="#f8fafc" stroke="#09111f" stroke-width="1.5"/>
<circle cx="375.0" cy="209.1" r="4.5" fill="#f8fafc" stroke="#09111f" stroke-width="1.5"/>
<circle cx="476.0" cy="209.1" r="4.5" fill="#f8fafc" stroke="#09111f" stroke-width="1.5"/>
<text x="476.0" y="376.0" fill="#94a3b8" font-family="Inter, -apple-system, BlinkMacSystemFont, Segoe UI, sans-serif" font-size="10" font-weight="400" text-anchor="middle">2025-05</text>
<circle cx="577.0" cy="203.5" r="4.5" fill="#f8fafc" stroke="#09111f" stroke-width="1.5"/>
<circle cx="678.0" cy="152.7" r="4.5" fill="#f8fafc" stroke="#09111f" stroke-width="1.5"/>
<circle cx="779.0" cy="153.9" r="4.5" fill="#f8fafc" stroke="#09111f" stroke-width="1.5"/>
<circle cx="880.0" cy="151.1" r="4.5" fill="#f8fafc" stroke="#09111f" stroke-width="1.5"/>
<text x="880.0" y="376.0" fill="#94a3b8" font-family="Inter, -apple-system, BlinkMacSystemFont, Segoe UI, sans-serif" font-size="10" font-weight="400" text-anchor="middle">2025-09</text>
<circle cx="82" cy="382" r="5" fill="#f8fafc"/>
<text x="94.0" y="386.0" fill="#d7dde8" font-family="Inter, -apple-system, BlinkMacSystemFont, Segoe UI, sans-serif" font-size="12" font-weight="400" text-anchor="start">α semantic lean</text>
<rect x="227" y="375" width="15" height="12" fill="#334155" opacity="0.72"/>
<text x="250.0" y="386.0" fill="#d7dde8" font-family="Inter, -apple-system, BlinkMacSystemFont, Segoe UI, sans-serif" font-size="12" font-weight="400" text-anchor="start">document count</text>
<line x1="387.0" y1="382.0" x2="417.0" y2="382.0" stroke="#60a5fa" stroke-width="2"/>
<text x="424.0" y="386.0" fill="#d7dde8" font-family="Inter, -apple-system, BlinkMacSystemFont, Segoe UI, sans-serif" font-size="12" font-weight="400" text-anchor="start">cos optimism</text>
<line x1="530.0" y1="382.0" x2="560.0" y2="382.0" stroke="#f87171" stroke-width="2"/>
<text x="567.0" y="386.0" fill="#d7dde8" font-family="Inter, -apple-system, BlinkMacSystemFont, Segoe UI, sans-serif" font-size="12" font-weight="400" text-anchor="start">cos doom</text>
<text x="72.0" y="410.0" fill="#cbd5e1" font-family="Inter, -apple-system, BlinkMacSystemFont, Segoe UI, sans-serif" font-size="13" font-weight="700" text-anchor="start">Correct reading: optimism to neutral to doom</text>
</svg>