<svg xmlns="http://www.w3.org/2000/svg" width="920" height="430" viewBox="0 0 920 430" role="img" aria-label="Semantic trend teaching chart for close-margin">
<rect width="100%" height="100%" fill="#09111f"/>
<rect x="20" y="20" width="880" height="390" rx="18" fill="#101b2e" stroke="#27364d"/>
<text x="42.0" y="48.0" fill="#f4f7fb" font-family="Inter, -apple-system, BlinkMacSystemFont, Segoe UI, sans-serif" font-size="20" font-weight="700" text-anchor="start">Synthetic AI optimism vs doom — close margin</text>
<text x="42.0" y="72.0" fill="#94a3b8" font-family="Inter, -apple-system, BlinkMacSystemFont, Segoe UI, sans-serif" font-size="13" font-weight="400" text-anchor="start">Synthetic teaching fixture · 7,330 documents · 8 buckets</text>
<rect x="72" y="54" width="808" height="300" fill="#0c1627" stroke="#203047"/>
<line x1="72.0" y1="279.0" x2="880.0" y2="279.0" stroke="#23344d" stroke-width="1"/>
<text x="52.0" y="283.0" fill="#7f8ea3" font-family="Inter, -apple-system, BlinkMacSystemFont, Segoe UI, sans-serif" font-size="11" font-weight="400" text-anchor="end">0.25</text>
<line x1="72.0" y1="204.0" x2="880.0" y2="204.0" stroke="#23344d" stroke-width="1" stroke-dasharray="4 5"/>
<text x="52.0" y="208.0" fill="#7f8ea3" font-family="Inter, -apple-system, BlinkMacSystemFont, Segoe UI, sans-serif" font-size="11" font-weight="400" text-anchor="end">0.50</text>
<line x1="72.0" y1="129.0" x2="880.0" y2="129.0" stroke="#23344d" stroke-width="1"/>
<text x="52.0" y="133.0" fill="#7f8ea3" font-family="Inter, -apple-system, BlinkMacSystemFont, Segoe UI, sans-serif" font-size="11" font-weight="400" text-anchor="end">0.75</text>
<text x="48.0" y="62.0" fill="#f87171" font-family="Inter, -apple-system, BlinkMacSystemFont, Segoe UI, sans-serif" font-size="11" font-weight="400" text-anchor="end">doom</text>
<text x="48.0" y="358.0" fill="#60a5fa" font-family="Inter, -apple-system, BlinkMacSystemFont, Segoe UI, sans-serif" font-size="11" font-weight="400" text-anchor="end">optimism</text>
<text x="888.0" y="208.0" fill="#94a3b8" font-family="Inter, -apple-system, BlinkMacSystemFont, Segoe UI, sans-serif" font-size="11" font-weight="400" text-anchor="start">neutral α=0.5</text>
<rect x="55.0" y="281.2" width="34.0" height="72.8" fill="#334155" opacity="0.72"/>
<rect x="170.4" y="284.3" width="34.0" height="69.7" fill="#334155" opacity="0.72"/>
<rect x="285.9" y="279.6" width="34.0" height="74.4" fill="#334155" opacity="0.72"/>
<rect x="401.3" y="282.0" width="34.0" height="72.0" fill="#334155" opacity="0.72"/>
<rect x="516.7" y="278.0" width="34.0" height="76.0" fill="#334155" opacity="0.72"/>
<rect x="632.1" y="283.1" width="34.0" height="70.9" fill="#334155" opacity="0.72"/>
<rect x="747.6" y="280.8" width="34.0" height="73.2" fill="#334155" opacity="0.72"/>
<rect x="863.0" y="282.8" width="34.0" height="71.2" fill="#334155" opacity="0.72"/>
<polyline points="72.0,199.9 187.4,199.3 302.9,202.3 418.3,197.3 533.7,203.6 649.1,193.3 764.6,198.7 880.0,196.7" fill="none" stroke="#f8fafc" stroke-width="3" stroke-linejoin="round" stroke-linecap="round"/>
<polyline points="72.0,107.9 187.4,107.7 302.9,105.7 418.3,111.1 533.7,106.0 649.1,110.5 764.6,107.4 880.0,109.0" fill="none" stroke="#60a5fa" stroke-width="1.8" opacity="0.65" stroke-linejoin="round"/>
<polyline points="72.0,103.7 187.4,101.0 302.9,104.3 418.3,102.0 533.7,103.1 649.1,101.2 764.6,102.2 880.0,102.5" fill="none" stroke="#f87171" stroke-width="1.8" opacity="0.65" stroke-linejoin="round"/>
<circle cx="72.0" cy="199.9" r="4.5" fill="#f8fafc" stroke="#09111f" stroke-width="1.5"/>
<text x="72.0" y="376.0" fill="#94a3b8" font-family="Inter, -apple-system, BlinkMacSystemFont, Segoe UI, sans-serif" font-size="10" font-weight="400" text-anchor="middle">2025-Q1</text>
<circle cx="187.4" cy="199.3" r="4.5" fill="#f8fafc" stroke="#09111f" stroke-width="1.5"/>
<text x="187.4" y="376.0" fill="#94a3b8" font-family="Inter, -apple-system, BlinkMacSystemFont, Segoe UI, sans-serif" font-size="10" font-weight="400" text-anchor="middle">2025-Q2</text>
<circle cx="302.9" cy="202.3" r="4.5" fill="#f8fafc" stroke="#09111f" stroke-width="1.5"/>
<circle cx="418.3" cy="197.3" r="4.5" fill="#f8fafc" stroke="#09111f" stroke-width="1.5"/>
<circle cx="533.7" cy="203.6" r="4.5" fill="#f8fafc" stroke="#09111f" stroke-width="1.5"/>
<circle cx="649.1" cy="193.3" r="4.5" fill="#f8fafc" stroke="#09111f" stroke-width="1.5"/>
<circle cx="764.6" cy="198.7" r="4.5" fill="#f8fafc" stroke="#09111f" stroke-width="1.5"/>
<circle cx="880.0" cy="196.7" r="4.5" fill="#f8fafc" stroke="#09111f" stroke-width="1.5"/>
<text x="880.0" y="376.0" fill="#94a3b8" font-family="Inter, -apple-system, BlinkMacSystemFont, Segoe UI, sans-serif" font-size="10" font-weight="400" text-anchor="middle">2026-Q4</text>
<circle cx="82" cy="382" r="5" fill="#f8fafc"/>
<text x="94.0" y="386.0" fill="#d7dde8" font-family="Inter, -apple-system, BlinkMacSystemFont, Segoe UI, sans-serif" font-size="12" font-weight="400" text-anchor="start">α semantic lean</text>
<rect x="227" y="375" width="15" height="12" fill="#334155" opacity="0.72"/>
<text x="250.0" y="386.0" fill="#d7dde8" font-family="Inter, -apple-system, BlinkMacSystemFont, Segoe UI, sans-serif" font-size="12" font-weight="400" text-anchor="start">document count</text>
<line x1="387.0" y1="382.0" x2="417.0" y2="382.0" stroke="#60a5fa" stroke-width="2"/>
<text x="424.0" y="386.0" fill="#d7dde8" font-family="Inter, -apple-system, BlinkMacSystemFont, Segoe UI, sans-serif" font-size="12" font-weight="400" text-anchor="start">cos optimism</text>
<line x1="530.0" y1="382.0" x2="560.0" y2="382.0" stroke="#f87171" stroke-width="2"/>
<text x="567.0" y="386.0" fill="#d7dde8" font-family="Inter, -apple-system, BlinkMacSystemFont, Segoe UI, sans-serif" font-size="12" font-weight="400" text-anchor="start">cos doom</text>
<text x="72.0" y="410.0" fill="#cbd5e1" font-family="Inter, -apple-system, BlinkMacSystemFont, Segoe UI, sans-serif" font-size="13" font-weight="700" text-anchor="start">Correct reading: poles are both high and difference is tiny</text>
</svg>