<svg xmlns="http://www.w3.org/2000/svg" width="1040" height="560" viewBox="0 0 1040 560" role="img" aria-label="Semantic trend teaching chart for close-margin">
<rect width="100%" height="100%" fill="#09111f"/>
<rect x="24" y="24" width="992" height="512" rx="18" fill="#101b2e" stroke="#27364d"/>
<text x="48.0" y="56.0" fill="#f4f7fb" font-family="Inter, -apple-system, BlinkMacSystemFont, Segoe UI, sans-serif" font-size="21" font-weight="700" text-anchor="start">Synthetic AI optimism vs doom — close margin</text>
<text x="48.0" y="82.0" fill="#94a3b8" font-family="Inter, -apple-system, BlinkMacSystemFont, Segoe UI, sans-serif" font-size="13" font-weight="400" text-anchor="start">Synthetic teaching fixture · 7,330 documents · 8 buckets</text>
<rect x="92" y="104" width="828" height="260" fill="#0c1627" stroke="#203047"/>
<rect x="92" y="382" width="828" height="64" fill="#0a1424" stroke="#203047"/>
<text x="92.0" y="92.0" fill="#94a3b8" font-family="Inter, -apple-system, BlinkMacSystemFont, Segoe UI, sans-serif" font-size="12" font-weight="400" text-anchor="start">Semantic similarity / α</text>
<text x="920.0" y="374.0" fill="#94a3b8" font-family="Inter, -apple-system, BlinkMacSystemFont, Segoe UI, sans-serif" font-size="12" font-weight="400" text-anchor="end">Document count, max 960</text>
<line x1="92.0" y1="299.0" x2="920.0" y2="299.0" stroke="#23344d" stroke-width="1"/>
<text x="76.0" y="303.0" fill="#7f8ea3" font-family="Inter, -apple-system, BlinkMacSystemFont, Segoe UI, sans-serif" font-size="11" font-weight="400" text-anchor="end">0.25</text>
<line x1="92.0" y1="234.0" x2="920.0" y2="234.0" stroke="#23344d" stroke-width="1" stroke-dasharray="4 5"/>
<text x="76.0" y="238.0" fill="#7f8ea3" font-family="Inter, -apple-system, BlinkMacSystemFont, Segoe UI, sans-serif" font-size="11" font-weight="400" text-anchor="end">0.50</text>
<line x1="92.0" y1="169.0" x2="920.0" y2="169.0" stroke="#23344d" stroke-width="1"/>
<text x="76.0" y="173.0" fill="#7f8ea3" font-family="Inter, -apple-system, BlinkMacSystemFont, Segoe UI, sans-serif" font-size="11" font-weight="400" text-anchor="end">0.75</text>
<line x1="92.0" y1="104.0" x2="920.0" y2="104.0" stroke="#23344d" stroke-width="1"/>
<text x="76.0" y="108.0" fill="#7f8ea3" font-family="Inter, -apple-system, BlinkMacSystemFont, Segoe UI, sans-serif" font-size="11" font-weight="400" text-anchor="end">1.00</text>
<text x="100.0" y="122.0" fill="#f87171" font-family="Inter, -apple-system, BlinkMacSystemFont, Segoe UI, sans-serif" font-size="11" font-weight="400" text-anchor="start">doom</text>
<text x="100.0" y="354.0" fill="#60a5fa" font-family="Inter, -apple-system, BlinkMacSystemFont, Segoe UI, sans-serif" font-size="11" font-weight="400" text-anchor="start">optimism</text>
<text x="100.0" y="226.0" fill="#94a3b8" font-family="Inter, -apple-system, BlinkMacSystemFont, Segoe UI, sans-serif" font-size="11" font-weight="400" text-anchor="start">neutral</text>
<g data-layer="volume-bars">
<rect x="72.0" y="396.2" width="40.0" height="49.8" rx="2" fill="#334155" opacity="0.74"/>
<rect x="190.3" y="398.3" width="40.0" height="47.7" rx="2" fill="#334155" opacity="0.74"/>
<rect x="308.6" y="395.1" width="40.0" height="50.9" rx="2" fill="#334155" opacity="0.74"/>
<rect x="426.9" y="396.7" width="40.0" height="49.3" rx="2" fill="#334155" opacity="0.74"/>
<rect x="545.1" y="394.0" width="40.0" height="52.0" rx="2" fill="#334155" opacity="0.74"/>
<text x="565.1" y="386.0" fill="#cbd5e1" font-family="Inter, -apple-system, BlinkMacSystemFont, Segoe UI, sans-serif" font-size="11" font-weight="700" text-anchor="middle">960 docs</text>
<rect x="663.4" y="397.5" width="40.0" height="48.5" rx="2" fill="#334155" opacity="0.74"/>
<rect x="781.7" y="395.9" width="40.0" height="50.1" rx="2" fill="#334155" opacity="0.74"/>
<rect x="900.0" y="397.2" width="40.0" height="48.8" rx="2" fill="#334155" opacity="0.74"/>
</g>
<g data-layer="semantic-lines">
<polyline points="92.0,230.4 210.3,229.9 328.6,232.5 446.9,228.2 565.1,233.7 683.4,224.8 801.7,229.4 920.0,227.7" fill="none" stroke="#f8fafc" stroke-width="3.2" stroke-linejoin="round" stroke-linecap="round"/>
<polyline points="92.0,150.7 210.3,150.6 328.6,148.8 446.9,153.5 565.1,149.1 683.4,152.9 801.7,150.3 920.0,151.7" fill="none" stroke="#60a5fa" stroke-width="1.9" opacity="0.72" stroke-linejoin="round"/>
<polyline points="92.0,147.1 210.3,144.7 328.6,147.6 446.9,145.6 565.1,146.6 683.4,144.9 801.7,145.8 920.0,146.1" fill="none" stroke="#f87171" stroke-width="1.9" opacity="0.72" stroke-linejoin="round"/>
<circle cx="92.0" cy="230.4" r="4.5" fill="#f8fafc" stroke="#09111f" stroke-width="1.5"/>
<circle cx="210.3" cy="229.9" r="4.5" fill="#f8fafc" stroke="#09111f" stroke-width="1.5"/>
<circle cx="328.6" cy="232.5" r="4.5" fill="#f8fafc" stroke="#09111f" stroke-width="1.5"/>
<circle cx="446.9" cy="228.2" r="4.5" fill="#f8fafc" stroke="#09111f" stroke-width="1.5"/>
<circle cx="565.1" cy="233.7" r="4.5" fill="#f8fafc" stroke="#09111f" stroke-width="1.5"/>
<circle cx="683.4" cy="224.8" r="4.5" fill="#f8fafc" stroke="#09111f" stroke-width="1.5"/>
<circle cx="801.7" cy="229.4" r="4.5" fill="#f8fafc" stroke="#09111f" stroke-width="1.5"/>
<circle cx="920.0" cy="227.7" r="4.5" fill="#f8fafc" stroke="#09111f" stroke-width="1.5"/>
</g>
<text x="92.0" y="470.0" fill="#94a3b8" font-family="Inter, -apple-system, BlinkMacSystemFont, Segoe UI, sans-serif" font-size="10" font-weight="400" text-anchor="middle">&#x27;25-Q1</text>
<text x="565.1" y="470.0" fill="#94a3b8" font-family="Inter, -apple-system, BlinkMacSystemFont, Segoe UI, sans-serif" font-size="10" font-weight="400" text-anchor="middle">&#x27;26-Q1</text>
<text x="920.0" y="470.0" fill="#94a3b8" font-family="Inter, -apple-system, BlinkMacSystemFont, Segoe UI, sans-serif" font-size="10" font-weight="400" text-anchor="middle">&#x27;26-Q4</text>
<circle cx="92" cy="496" r="5" fill="#f8fafc"/>
<text x="104.0" y="500.0" fill="#d7dde8" font-family="Inter, -apple-system, BlinkMacSystemFont, Segoe UI, sans-serif" font-size="12" font-weight="400" text-anchor="start">α semantic lean</text>
<rect x="252" y="489" width="15" height="12" fill="#334155" opacity="0.74"/>
<text x="275.0" y="500.0" fill="#d7dde8" font-family="Inter, -apple-system, BlinkMacSystemFont, Segoe UI, sans-serif" font-size="12" font-weight="400" text-anchor="start">document count</text>
<line x1="420.0" y1="496.0" x2="452.0" y2="496.0" stroke="#60a5fa" stroke-width="2"/>
<text x="460.0" y="500.0" fill="#d7dde8" font-family="Inter, -apple-system, BlinkMacSystemFont, Segoe UI, sans-serif" font-size="12" font-weight="400" text-anchor="start">cos optimism</text>
<line x1="592.0" y1="496.0" x2="624.0" y2="496.0" stroke="#f87171" stroke-width="2"/>
<text x="632.0" y="500.0" fill="#d7dde8" font-family="Inter, -apple-system, BlinkMacSystemFont, Segoe UI, sans-serif" font-size="12" font-weight="400" text-anchor="start">cos doom</text>
<text x="92.0" y="532.0" fill="#cbd5e1" font-family="Inter, -apple-system, BlinkMacSystemFont, Segoe UI, sans-serif" font-size="13" font-weight="700" text-anchor="start">Correct reading: poles are both high and difference is tiny</text>
</svg>