<svg xmlns="http://www.w3.org/2000/svg" width="920" height="430" viewBox="0 0 920 430" role="img" aria-label="Semantic trend teaching chart for misleading-volume">
<rect width="100%" height="100%" fill="#09111f"/>
<rect x="20" y="20" width="880" height="390" rx="18" fill="#101b2e" stroke="#27364d"/>
<text x="42.0" y="48.0" fill="#f4f7fb" font-family="Inter, -apple-system, BlinkMacSystemFont, Segoe UI, sans-serif" font-size="20" font-weight="700" text-anchor="start">Synthetic AI optimism vs doom — misleading volume</text>
<text x="42.0" y="72.0" fill="#94a3b8" font-family="Inter, -apple-system, BlinkMacSystemFont, Segoe UI, sans-serif" font-size="13" font-weight="400" text-anchor="start">Synthetic teaching fixture · 11,298 documents · 10 buckets</text>
<rect x="72" y="54" width="808" height="300" fill="#0c1627" stroke="#203047"/>
<line x1="72.0" y1="279.0" x2="880.0" y2="279.0" stroke="#23344d" stroke-width="1"/>
<text x="52.0" y="283.0" fill="#7f8ea3" font-family="Inter, -apple-system, BlinkMacSystemFont, Segoe UI, sans-serif" font-size="11" font-weight="400" text-anchor="end">0.25</text>
<line x1="72.0" y1="204.0" x2="880.0" y2="204.0" stroke="#23344d" stroke-width="1" stroke-dasharray="4 5"/>
<text x="52.0" y="208.0" fill="#7f8ea3" font-family="Inter, -apple-system, BlinkMacSystemFont, Segoe UI, sans-serif" font-size="11" font-weight="400" text-anchor="end">0.50</text>
<line x1="72.0" y1="129.0" x2="880.0" y2="129.0" stroke="#23344d" stroke-width="1"/>
<text x="52.0" y="133.0" fill="#7f8ea3" font-family="Inter, -apple-system, BlinkMacSystemFont, Segoe UI, sans-serif" font-size="11" font-weight="400" text-anchor="end">0.75</text>
<text x="48.0" y="62.0" fill="#f87171" font-family="Inter, -apple-system, BlinkMacSystemFont, Segoe UI, sans-serif" font-size="11" font-weight="400" text-anchor="end">doom</text>
<text x="48.0" y="358.0" fill="#60a5fa" font-family="Inter, -apple-system, BlinkMacSystemFont, Segoe UI, sans-serif" font-size="11" font-weight="400" text-anchor="end">optimism</text>
<text x="888.0" y="208.0" fill="#94a3b8" font-family="Inter, -apple-system, BlinkMacSystemFont, Segoe UI, sans-serif" font-size="11" font-weight="400" text-anchor="start">neutral α=0.5</text>
<rect x="55.0" y="288.9" width="34.0" height="65.1" fill="#334155" opacity="0.72"/>
<rect x="144.8" y="294.3" width="34.0" height="59.7" fill="#334155" opacity="0.72"/>
<rect x="234.6" y="283.4" width="34.0" height="70.6" fill="#334155" opacity="0.72"/>
<rect x="324.3" y="351.0" width="34.0" height="3.0" fill="#f59e0b" opacity="0.72"/>
<rect x="414.1" y="286.1" width="34.0" height="67.9" fill="#334155" opacity="0.72"/>
<rect x="503.9" y="289.9" width="34.0" height="64.1" fill="#334155" opacity="0.72"/>
<rect x="593.7" y="278.0" width="34.0" height="76.0" fill="#334155" opacity="0.72"/>
<rect x="683.4" y="280.7" width="34.0" height="73.3" fill="#334155" opacity="0.72"/>
<rect x="773.2" y="284.5" width="34.0" height="69.5" fill="#334155" opacity="0.72"/>
<rect x="863.0" y="287.8" width="34.0" height="66.2" fill="#334155" opacity="0.72"/>
<polyline points="72.0,206.3 161.8,205.3 251.6,205.1 341.3,121.2 431.1,203.3 520.9,203.8 610.7,205.5 700.4,203.0 790.2,198.8 880.0,205.9" fill="none" stroke="#f8fafc" stroke-width="3" stroke-linejoin="round" stroke-linecap="round"/>
<polyline points="72.0,161.3 161.8,160.3 251.6,161.6 341.3,220.0 431.1,164.9 520.9,163.1 610.7,161.7 700.4,162.2 790.2,164.6 880.0,160.3" fill="none" stroke="#60a5fa" stroke-width="1.8" opacity="0.65" stroke-linejoin="round"/>
<polyline points="72.0,163.7 161.8,160.6 251.6,163.6 341.3,137.9 431.1,159.5 520.9,161.3 610.7,161.4 700.4,162.8 790.2,161.9 880.0,160.9" fill="none" stroke="#f87171" stroke-width="1.8" opacity="0.65" stroke-linejoin="round"/>
<circle cx="72.0" cy="206.3" r="4.5" fill="#f8fafc" stroke="#09111f" stroke-width="1.5"/>
<text x="72.0" y="376.0" fill="#94a3b8" font-family="Inter, -apple-system, BlinkMacSystemFont, Segoe UI, sans-serif" font-size="10" font-weight="400" text-anchor="middle">2025-01</text>
<circle cx="161.8" cy="205.3" r="4.5" fill="#f8fafc" stroke="#09111f" stroke-width="1.5"/>
<circle cx="251.6" cy="205.1" r="4.5" fill="#f8fafc" stroke="#09111f" stroke-width="1.5"/>
<circle cx="341.3" cy="121.2" r="4.5" fill="#f8fafc" stroke="#09111f" stroke-width="1.5"/>
<text x="341.3" y="376.0" fill="#94a3b8" font-family="Inter, -apple-system, BlinkMacSystemFont, Segoe UI, sans-serif" font-size="10" font-weight="400" text-anchor="middle">2025-04</text>
<text x="341.3" y="103.2" fill="#fbbf24" font-family="Inter, -apple-system, BlinkMacSystemFont, Segoe UI, sans-serif" font-size="12" font-weight="700" text-anchor="middle">low volume: 18 docs</text>
<circle cx="431.1" cy="203.3" r="4.5" fill="#f8fafc" stroke="#09111f" stroke-width="1.5"/>
<circle cx="520.9" cy="203.8" r="4.5" fill="#f8fafc" stroke="#09111f" stroke-width="1.5"/>
<circle cx="610.7" cy="205.5" r="4.5" fill="#f8fafc" stroke="#09111f" stroke-width="1.5"/>
<circle cx="700.4" cy="203.0" r="4.5" fill="#f8fafc" stroke="#09111f" stroke-width="1.5"/>
<circle cx="790.2" cy="198.8" r="4.5" fill="#f8fafc" stroke="#09111f" stroke-width="1.5"/>
<circle cx="880.0" cy="205.9" r="4.5" fill="#f8fafc" stroke="#09111f" stroke-width="1.5"/>
<text x="880.0" y="376.0" fill="#94a3b8" font-family="Inter, -apple-system, BlinkMacSystemFont, Segoe UI, sans-serif" font-size="10" font-weight="400" text-anchor="middle">2025-10</text>
<circle cx="82" cy="382" r="5" fill="#f8fafc"/>
<text x="94.0" y="386.0" fill="#d7dde8" font-family="Inter, -apple-system, BlinkMacSystemFont, Segoe UI, sans-serif" font-size="12" font-weight="400" text-anchor="start">α semantic lean</text>
<rect x="227" y="375" width="15" height="12" fill="#334155" opacity="0.72"/>
<text x="250.0" y="386.0" fill="#d7dde8" font-family="Inter, -apple-system, BlinkMacSystemFont, Segoe UI, sans-serif" font-size="12" font-weight="400" text-anchor="start">document count</text>
<line x1="387.0" y1="382.0" x2="417.0" y2="382.0" stroke="#60a5fa" stroke-width="2"/>
<text x="424.0" y="386.0" fill="#d7dde8" font-family="Inter, -apple-system, BlinkMacSystemFont, Segoe UI, sans-serif" font-size="12" font-weight="400" text-anchor="start">cos optimism</text>
<line x1="530.0" y1="382.0" x2="560.0" y2="382.0" stroke="#f87171" stroke-width="2"/>
<text x="567.0" y="386.0" fill="#d7dde8" font-family="Inter, -apple-system, BlinkMacSystemFont, Segoe UI, sans-serif" font-size="12" font-weight="400" text-anchor="start">cos doom</text>
<text x="72.0" y="410.0" fill="#cbd5e1" font-family="Inter, -apple-system, BlinkMacSystemFont, Segoe UI, sans-serif" font-size="13" font-weight="700" text-anchor="start">Correct reading: visible spike low n do not overclaim</text>
</svg>