<svg xmlns="http://www.w3.org/2000/svg" width="1040" height="560" viewBox="0 0 1040 560" role="img" aria-label="Semantic trend teaching chart for misleading-volume">
<rect width="100%" height="100%" fill="#09111f"/>
<rect x="24" y="24" width="992" height="512" rx="18" fill="#101b2e" stroke="#27364d"/>
<text x="48.0" y="56.0" fill="#f4f7fb" font-family="Inter, -apple-system, BlinkMacSystemFont, Segoe UI, sans-serif" font-size="21" font-weight="700" text-anchor="start">Synthetic AI optimism vs doom — misleading volume</text>
<text x="48.0" y="82.0" fill="#94a3b8" font-family="Inter, -apple-system, BlinkMacSystemFont, Segoe UI, sans-serif" font-size="13" font-weight="400" text-anchor="start">Synthetic teaching fixture · 11,298 documents · 10 buckets</text>
<rect x="92" y="104" width="828" height="260" fill="#0c1627" stroke="#203047"/>
<rect x="92" y="382" width="828" height="64" fill="#0a1424" stroke="#203047"/>
<text x="92.0" y="92.0" fill="#94a3b8" font-family="Inter, -apple-system, BlinkMacSystemFont, Segoe UI, sans-serif" font-size="12" font-weight="400" text-anchor="start">Semantic similarity / α</text>
<text x="920.0" y="374.0" fill="#94a3b8" font-family="Inter, -apple-system, BlinkMacSystemFont, Segoe UI, sans-serif" font-size="12" font-weight="400" text-anchor="end">Document count, max 1,400</text>
<line x1="92.0" y1="299.0" x2="920.0" y2="299.0" stroke="#23344d" stroke-width="1"/>
<text x="76.0" y="303.0" fill="#7f8ea3" font-family="Inter, -apple-system, BlinkMacSystemFont, Segoe UI, sans-serif" font-size="11" font-weight="400" text-anchor="end">0.25</text>
<line x1="92.0" y1="234.0" x2="920.0" y2="234.0" stroke="#23344d" stroke-width="1" stroke-dasharray="4 5"/>
<text x="76.0" y="238.0" fill="#7f8ea3" font-family="Inter, -apple-system, BlinkMacSystemFont, Segoe UI, sans-serif" font-size="11" font-weight="400" text-anchor="end">0.50</text>
<line x1="92.0" y1="169.0" x2="920.0" y2="169.0" stroke="#23344d" stroke-width="1"/>
<text x="76.0" y="173.0" fill="#7f8ea3" font-family="Inter, -apple-system, BlinkMacSystemFont, Segoe UI, sans-serif" font-size="11" font-weight="400" text-anchor="end">0.75</text>
<line x1="92.0" y1="104.0" x2="920.0" y2="104.0" stroke="#23344d" stroke-width="1"/>
<text x="76.0" y="108.0" fill="#7f8ea3" font-family="Inter, -apple-system, BlinkMacSystemFont, Segoe UI, sans-serif" font-size="11" font-weight="400" text-anchor="end">1.00</text>
<text x="100.0" y="122.0" fill="#f87171" font-family="Inter, -apple-system, BlinkMacSystemFont, Segoe UI, sans-serif" font-size="11" font-weight="400" text-anchor="start">doom</text>
<text x="100.0" y="354.0" fill="#60a5fa" font-family="Inter, -apple-system, BlinkMacSystemFont, Segoe UI, sans-serif" font-size="11" font-weight="400" text-anchor="start">optimism</text>
<text x="100.0" y="226.0" fill="#94a3b8" font-family="Inter, -apple-system, BlinkMacSystemFont, Segoe UI, sans-serif" font-size="11" font-weight="400" text-anchor="start">neutral</text>
<g data-layer="volume-bars">
<rect x="114.4" y="401.4" width="38.1" height="44.6" rx="2" fill="#334155" opacity="0.74"/>
<rect x="197.2" y="405.1" width="38.1" height="40.9" rx="2" fill="#334155" opacity="0.74"/>
<rect x="280.0" y="397.7" width="38.1" height="48.3" rx="2" fill="#334155" opacity="0.74"/>
<rect x="362.8" y="442.0" width="38.1" height="4.0" rx="2" fill="#f59e0b" opacity="0.74"/>
<text x="381.8" y="434.0" fill="#fbbf24" font-family="Inter, -apple-system, BlinkMacSystemFont, Segoe UI, sans-serif" font-size="12" font-weight="700" text-anchor="middle">low volume: 18 docs</text>
<rect x="445.6" y="399.6" width="38.1" height="46.4" rx="2" fill="#334155" opacity="0.74"/>
<rect x="528.4" y="402.2" width="38.1" height="43.8" rx="2" fill="#334155" opacity="0.74"/>
<rect x="611.2" y="394.0" width="38.1" height="52.0" rx="2" fill="#334155" opacity="0.74"/>
<text x="630.2" y="386.0" fill="#cbd5e1" font-family="Inter, -apple-system, BlinkMacSystemFont, Segoe UI, sans-serif" font-size="11" font-weight="700" text-anchor="middle">1,400 docs</text>
<rect x="694.0" y="395.9" width="38.1" height="50.1" rx="2" fill="#334155" opacity="0.74"/>
<rect x="776.8" y="398.5" width="38.1" height="47.5" rx="2" fill="#334155" opacity="0.74"/>
<rect x="859.6" y="400.7" width="38.1" height="45.3" rx="2" fill="#334155" opacity="0.74"/>
</g>
<g data-layer="semantic-lines">
<polyline points="133.4,236.0 216.2,235.1 299.0,235.0 381.8,162.3 464.6,233.4 547.4,233.8 630.2,235.3 713.0,233.2 795.8,229.5 878.6,235.7" fill="none" stroke="#f8fafc" stroke-width="3.2" stroke-linejoin="round" stroke-linecap="round"/>
<polyline points="133.4,197.0 216.2,196.1 299.0,197.2 381.8,247.9 464.6,200.1 547.4,198.5 630.2,197.3 713.0,197.8 795.8,199.8 878.6,196.1" fill="none" stroke="#60a5fa" stroke-width="1.9" opacity="0.72" stroke-linejoin="round"/>
<polyline points="133.4,199.1 216.2,196.4 299.0,199.0 381.8,176.7 464.6,195.4 547.4,197.0 630.2,197.1 713.0,198.2 795.8,197.5 878.6,196.6" fill="none" stroke="#f87171" stroke-width="1.9" opacity="0.72" stroke-linejoin="round"/>
<circle cx="133.4" cy="236.0" r="4.5" fill="#f8fafc" stroke="#09111f" stroke-width="1.5"/>
<circle cx="216.2" cy="235.1" r="4.5" fill="#f8fafc" stroke="#09111f" stroke-width="1.5"/>
<circle cx="299.0" cy="235.0" r="4.5" fill="#f8fafc" stroke="#09111f" stroke-width="1.5"/>
<circle cx="381.8" cy="162.3" r="4.5" fill="#f8fafc" stroke="#09111f" stroke-width="1.5"/>
<circle cx="464.6" cy="233.4" r="4.5" fill="#f8fafc" stroke="#09111f" stroke-width="1.5"/>
<circle cx="547.4" cy="233.8" r="4.5" fill="#f8fafc" stroke="#09111f" stroke-width="1.5"/>
<circle cx="630.2" cy="235.3" r="4.5" fill="#f8fafc" stroke="#09111f" stroke-width="1.5"/>
<circle cx="713.0" cy="233.2" r="4.5" fill="#f8fafc" stroke="#09111f" stroke-width="1.5"/>
<circle cx="795.8" cy="229.5" r="4.5" fill="#f8fafc" stroke="#09111f" stroke-width="1.5"/>
<circle cx="878.6" cy="235.7" r="4.5" fill="#f8fafc" stroke="#09111f" stroke-width="1.5"/>
</g>
<text x="133.4" y="470.0" fill="#94a3b8" font-family="Inter, -apple-system, BlinkMacSystemFont, Segoe UI, sans-serif" font-size="10" font-weight="400" text-anchor="middle">&#x27;25-01</text>
<text x="547.4" y="470.0" fill="#94a3b8" font-family="Inter, -apple-system, BlinkMacSystemFont, Segoe UI, sans-serif" font-size="10" font-weight="400" text-anchor="middle">&#x27;25-06</text>
<text x="878.6" y="470.0" fill="#94a3b8" font-family="Inter, -apple-system, BlinkMacSystemFont, Segoe UI, sans-serif" font-size="10" font-weight="400" text-anchor="middle">&#x27;25-10</text>
<circle cx="92" cy="496" r="5" fill="#f8fafc"/>
<text x="104.0" y="500.0" fill="#d7dde8" font-family="Inter, -apple-system, BlinkMacSystemFont, Segoe UI, sans-serif" font-size="12" font-weight="400" text-anchor="start">α semantic lean</text>
<rect x="252" y="489" width="15" height="12" fill="#334155" opacity="0.74"/>
<text x="275.0" y="500.0" fill="#d7dde8" font-family="Inter, -apple-system, BlinkMacSystemFont, Segoe UI, sans-serif" font-size="12" font-weight="400" text-anchor="start">document count</text>
<line x1="420.0" y1="496.0" x2="452.0" y2="496.0" stroke="#60a5fa" stroke-width="2"/>
<text x="460.0" y="500.0" fill="#d7dde8" font-family="Inter, -apple-system, BlinkMacSystemFont, Segoe UI, sans-serif" font-size="12" font-weight="400" text-anchor="start">cos optimism</text>
<line x1="592.0" y1="496.0" x2="624.0" y2="496.0" stroke="#f87171" stroke-width="2"/>
<text x="632.0" y="500.0" fill="#d7dde8" font-family="Inter, -apple-system, BlinkMacSystemFont, Segoe UI, sans-serif" font-size="12" font-weight="400" text-anchor="start">cos doom</text>
<text x="92.0" y="532.0" fill="#cbd5e1" font-family="Inter, -apple-system, BlinkMacSystemFont, Segoe UI, sans-serif" font-size="13" font-weight="700" text-anchor="start">Correct reading: visible spike low n do not overclaim</text>
</svg>