<svg xmlns="http://www.w3.org/2000/svg" width="1040" height="560" viewBox="0 0 1040 560" role="img" aria-label="Semantic trend teaching chart for null-shuffled">
<rect width="100%" height="100%" fill="#09111f"/>
<rect x="24" y="24" width="992" height="512" rx="18" fill="#101b2e" stroke="#27364d"/>
<text x="48.0" y="56.0" fill="#f4f7fb" font-family="Inter, -apple-system, BlinkMacSystemFont, Segoe UI, sans-serif" font-size="21" font-weight="700" text-anchor="start">Synthetic AI optimism vs doom — null shuffled</text>
<text x="48.0" y="82.0" fill="#94a3b8" font-family="Inter, -apple-system, BlinkMacSystemFont, Segoe UI, sans-serif" font-size="13" font-weight="400" text-anchor="start">Synthetic teaching fixture · 10,460 documents · 12 buckets</text>
<rect x="92" y="104" width="828" height="260" fill="#0c1627" stroke="#203047"/>
<rect x="92" y="382" width="828" height="64" fill="#0a1424" stroke="#203047"/>
<text x="92.0" y="92.0" fill="#94a3b8" font-family="Inter, -apple-system, BlinkMacSystemFont, Segoe UI, sans-serif" font-size="12" font-weight="400" text-anchor="start">Semantic similarity / α</text>
<text x="920.0" y="374.0" fill="#94a3b8" font-family="Inter, -apple-system, BlinkMacSystemFont, Segoe UI, sans-serif" font-size="12" font-weight="400" text-anchor="end">Document count, max 930</text>
<line x1="92.0" y1="299.0" x2="920.0" y2="299.0" stroke="#23344d" stroke-width="1"/>
<text x="76.0" y="303.0" fill="#7f8ea3" font-family="Inter, -apple-system, BlinkMacSystemFont, Segoe UI, sans-serif" font-size="11" font-weight="400" text-anchor="end">0.25</text>
<line x1="92.0" y1="234.0" x2="920.0" y2="234.0" stroke="#23344d" stroke-width="1" stroke-dasharray="4 5"/>
<text x="76.0" y="238.0" fill="#7f8ea3" font-family="Inter, -apple-system, BlinkMacSystemFont, Segoe UI, sans-serif" font-size="11" font-weight="400" text-anchor="end">0.50</text>
<line x1="92.0" y1="169.0" x2="920.0" y2="169.0" stroke="#23344d" stroke-width="1"/>
<text x="76.0" y="173.0" fill="#7f8ea3" font-family="Inter, -apple-system, BlinkMacSystemFont, Segoe UI, sans-serif" font-size="11" font-weight="400" text-anchor="end">0.75</text>
<line x1="92.0" y1="104.0" x2="920.0" y2="104.0" stroke="#23344d" stroke-width="1"/>
<text x="76.0" y="108.0" fill="#7f8ea3" font-family="Inter, -apple-system, BlinkMacSystemFont, Segoe UI, sans-serif" font-size="11" font-weight="400" text-anchor="end">1.00</text>
<text x="100.0" y="122.0" fill="#f87171" font-family="Inter, -apple-system, BlinkMacSystemFont, Segoe UI, sans-serif" font-size="11" font-weight="400" text-anchor="start">doom</text>
<text x="100.0" y="354.0" fill="#60a5fa" font-family="Inter, -apple-system, BlinkMacSystemFont, Segoe UI, sans-serif" font-size="11" font-weight="400" text-anchor="start">optimism</text>
<text x="100.0" y="226.0" fill="#94a3b8" font-family="Inter, -apple-system, BlinkMacSystemFont, Segoe UI, sans-serif" font-size="11" font-weight="400" text-anchor="start">neutral</text>
<g data-layer="volume-bars">
<rect x="76.1" y="399.0" width="31.7" height="47.0" rx="2" fill="#334155" opacity="0.74"/>
<rect x="151.4" y="395.1" width="31.7" height="50.9" rx="2" fill="#334155" opacity="0.74"/>
<rect x="226.7" y="397.1" width="31.7" height="48.9" rx="2" fill="#334155" opacity="0.74"/>
<rect x="301.9" y="394.0" width="31.7" height="52.0" rx="2" fill="#334155" opacity="0.74"/>
<text x="317.8" y="386.0" fill="#cbd5e1" font-family="Inter, -apple-system, BlinkMacSystemFont, Segoe UI, sans-serif" font-size="11" font-weight="700" text-anchor="middle">930 docs</text>
<rect x="377.2" y="401.8" width="31.7" height="44.2" rx="2" fill="#334155" opacity="0.74"/>
<rect x="452.5" y="397.6" width="31.7" height="48.4" rx="2" fill="#334155" opacity="0.74"/>
<rect x="527.8" y="394.6" width="31.7" height="51.4" rx="2" fill="#334155" opacity="0.74"/>
<rect x="603.0" y="400.7" width="31.7" height="45.3" rx="2" fill="#334155" opacity="0.74"/>
<rect x="678.3" y="396.0" width="31.7" height="50.0" rx="2" fill="#334155" opacity="0.74"/>
<rect x="753.6" y="397.4" width="31.7" height="48.6" rx="2" fill="#334155" opacity="0.74"/>
<rect x="828.9" y="395.4" width="31.7" height="50.6" rx="2" fill="#334155" opacity="0.74"/>
<rect x="904.1" y="398.5" width="31.7" height="47.5" rx="2" fill="#334155" opacity="0.74"/>
</g>
<g data-layer="semantic-lines">
<polyline points="92.0,236.1 167.3,232.3 242.5,234.7 317.8,233.9 393.1,232.6 468.4,233.2 543.6,231.1 618.9,237.2 694.2,237.8 769.5,233.0 844.7,233.7 920.0,233.5" fill="none" stroke="#f8fafc" stroke-width="3.2" stroke-linejoin="round" stroke-linecap="round"/>
<polyline points="92.0,192.7 167.3,195.7 242.5,190.8 317.8,197.1 393.1,197.2 468.4,193.4 543.6,191.4 618.9,192.3 694.2,190.4 769.5,196.6 844.7,191.5 920.0,190.3" fill="none" stroke="#60a5fa" stroke-width="1.9" opacity="0.72" stroke-linejoin="round"/>
<polyline points="92.0,197.2 167.3,192.0 242.5,196.7 317.8,195.8 393.1,195.9 468.4,195.7 543.6,197.3 618.9,194.9 694.2,194.9 769.5,191.2 844.7,192.0 920.0,194.6" fill="none" stroke="#f87171" stroke-width="1.9" opacity="0.72" stroke-linejoin="round"/>
<circle cx="92.0" cy="236.1" r="4.5" fill="#f8fafc" stroke="#09111f" stroke-width="1.5"/>
<circle cx="167.3" cy="232.3" r="4.5" fill="#f8fafc" stroke="#09111f" stroke-width="1.5"/>
<circle cx="242.5" cy="234.7" r="4.5" fill="#f8fafc" stroke="#09111f" stroke-width="1.5"/>
<circle cx="317.8" cy="233.9" r="4.5" fill="#f8fafc" stroke="#09111f" stroke-width="1.5"/>
<circle cx="393.1" cy="232.6" r="4.5" fill="#f8fafc" stroke="#09111f" stroke-width="1.5"/>
<circle cx="468.4" cy="233.2" r="4.5" fill="#f8fafc" stroke="#09111f" stroke-width="1.5"/>
<circle cx="543.6" cy="231.1" r="4.5" fill="#f8fafc" stroke="#09111f" stroke-width="1.5"/>
<circle cx="618.9" cy="237.2" r="4.5" fill="#f8fafc" stroke="#09111f" stroke-width="1.5"/>
<circle cx="694.2" cy="237.8" r="4.5" fill="#f8fafc" stroke="#09111f" stroke-width="1.5"/>
<circle cx="769.5" cy="233.0" r="4.5" fill="#f8fafc" stroke="#09111f" stroke-width="1.5"/>
<circle cx="844.7" cy="233.7" r="4.5" fill="#f8fafc" stroke="#09111f" stroke-width="1.5"/>
<circle cx="920.0" cy="233.5" r="4.5" fill="#f8fafc" stroke="#09111f" stroke-width="1.5"/>
</g>
<text x="92.0" y="470.0" fill="#94a3b8" font-family="Inter, -apple-system, BlinkMacSystemFont, Segoe UI, sans-serif" font-size="10" font-weight="400" text-anchor="middle">&#x27;25-01</text>
<text x="543.6" y="470.0" fill="#94a3b8" font-family="Inter, -apple-system, BlinkMacSystemFont, Segoe UI, sans-serif" font-size="10" font-weight="400" text-anchor="middle">&#x27;25-07</text>
<text x="920.0" y="470.0" fill="#94a3b8" font-family="Inter, -apple-system, BlinkMacSystemFont, Segoe UI, sans-serif" font-size="10" font-weight="400" text-anchor="middle">&#x27;25-12</text>
<circle cx="92" cy="496" r="5" fill="#f8fafc"/>
<text x="104.0" y="500.0" fill="#d7dde8" font-family="Inter, -apple-system, BlinkMacSystemFont, Segoe UI, sans-serif" font-size="12" font-weight="400" text-anchor="start">α semantic lean</text>
<rect x="252" y="489" width="15" height="12" fill="#334155" opacity="0.74"/>
<text x="275.0" y="500.0" fill="#d7dde8" font-family="Inter, -apple-system, BlinkMacSystemFont, Segoe UI, sans-serif" font-size="12" font-weight="400" text-anchor="start">document count</text>
<line x1="420.0" y1="496.0" x2="452.0" y2="496.0" stroke="#60a5fa" stroke-width="2"/>
<text x="460.0" y="500.0" fill="#d7dde8" font-family="Inter, -apple-system, BlinkMacSystemFont, Segoe UI, sans-serif" font-size="12" font-weight="400" text-anchor="start">cos optimism</text>
<line x1="592.0" y1="496.0" x2="624.0" y2="496.0" stroke="#f87171" stroke-width="2"/>
<text x="632.0" y="500.0" fill="#d7dde8" font-family="Inter, -apple-system, BlinkMacSystemFont, Segoe UI, sans-serif" font-size="12" font-weight="400" text-anchor="start">cos doom</text>
<text x="92.0" y="532.0" fill="#cbd5e1" font-family="Inter, -apple-system, BlinkMacSystemFont, Segoe UI, sans-serif" font-size="13" font-weight="700" text-anchor="start">Correct reading: no meaningful semantic drift</text>
</svg>