<svg xmlns="http://www.w3.org/2000/svg" width="920" height="430" viewBox="0 0 920 430" role="img" aria-label="Semantic trend teaching chart for null-shuffled">
<rect width="100%" height="100%" fill="#09111f"/>
<rect x="20" y="20" width="880" height="390" rx="18" fill="#101b2e" stroke="#27364d"/>
<text x="42.0" y="48.0" fill="#f4f7fb" font-family="Inter, -apple-system, BlinkMacSystemFont, Segoe UI, sans-serif" font-size="20" font-weight="700" text-anchor="start">Synthetic AI optimism vs doom — null shuffled</text>
<text x="42.0" y="72.0" fill="#94a3b8" font-family="Inter, -apple-system, BlinkMacSystemFont, Segoe UI, sans-serif" font-size="13" font-weight="400" text-anchor="start">Synthetic teaching fixture · 10,460 documents · 12 buckets</text>
<rect x="72" y="54" width="808" height="300" fill="#0c1627" stroke="#203047"/>
<line x1="72.0" y1="279.0" x2="880.0" y2="279.0" stroke="#23344d" stroke-width="1"/>
<text x="52.0" y="283.0" fill="#7f8ea3" font-family="Inter, -apple-system, BlinkMacSystemFont, Segoe UI, sans-serif" font-size="11" font-weight="400" text-anchor="end">0.25</text>
<line x1="72.0" y1="204.0" x2="880.0" y2="204.0" stroke="#23344d" stroke-width="1" stroke-dasharray="4 5"/>
<text x="52.0" y="208.0" fill="#7f8ea3" font-family="Inter, -apple-system, BlinkMacSystemFont, Segoe UI, sans-serif" font-size="11" font-weight="400" text-anchor="end">0.50</text>
<line x1="72.0" y1="129.0" x2="880.0" y2="129.0" stroke="#23344d" stroke-width="1"/>
<text x="52.0" y="133.0" fill="#7f8ea3" font-family="Inter, -apple-system, BlinkMacSystemFont, Segoe UI, sans-serif" font-size="11" font-weight="400" text-anchor="end">0.75</text>
<text x="48.0" y="62.0" fill="#f87171" font-family="Inter, -apple-system, BlinkMacSystemFont, Segoe UI, sans-serif" font-size="11" font-weight="400" text-anchor="end">doom</text>
<text x="48.0" y="358.0" fill="#60a5fa" font-family="Inter, -apple-system, BlinkMacSystemFont, Segoe UI, sans-serif" font-size="11" font-weight="400" text-anchor="end">optimism</text>
<text x="888.0" y="208.0" fill="#94a3b8" font-family="Inter, -apple-system, BlinkMacSystemFont, Segoe UI, sans-serif" font-size="11" font-weight="400" text-anchor="start">neutral α=0.5</text>
<rect x="55.0" y="285.4" width="34.0" height="68.6" fill="#334155" opacity="0.72"/>
<rect x="128.5" y="279.6" width="34.0" height="74.4" fill="#334155" opacity="0.72"/>
<rect x="201.9" y="282.5" width="34.0" height="71.5" fill="#334155" opacity="0.72"/>
<rect x="275.4" y="278.0" width="34.0" height="76.0" fill="#334155" opacity="0.72"/>
<rect x="348.8" y="289.4" width="34.0" height="64.6" fill="#334155" opacity="0.72"/>
<rect x="422.3" y="283.3" width="34.0" height="70.7" fill="#334155" opacity="0.72"/>
<rect x="495.7" y="278.8" width="34.0" height="75.2" fill="#334155" opacity="0.72"/>
<rect x="569.2" y="287.8" width="34.0" height="66.2" fill="#334155" opacity="0.72"/>
<rect x="642.6" y="280.9" width="34.0" height="73.1" fill="#334155" opacity="0.72"/>
<rect x="716.1" y="282.9" width="34.0" height="71.1" fill="#334155" opacity="0.72"/>
<rect x="789.5" y="280.0" width="34.0" height="74.0" fill="#334155" opacity="0.72"/>
<rect x="863.0" y="284.5" width="34.0" height="69.5" fill="#334155" opacity="0.72"/>
<polyline points="72.0,206.4 145.5,202.1 218.9,204.8 292.4,203.9 365.8,202.4 439.3,203.0 512.7,200.7 586.2,207.7 659.6,208.4 733.1,202.9 806.5,203.6 880.0,203.4" fill="none" stroke="#f8fafc" stroke-width="3" stroke-linejoin="round" stroke-linecap="round"/>
<polyline points="72.0,156.3 145.5,159.8 218.9,154.2 292.4,161.5 365.8,161.5 439.3,157.1 512.7,154.9 586.2,155.9 659.6,153.7 733.1,160.9 806.5,154.9 880.0,153.5" fill="none" stroke="#60a5fa" stroke-width="1.8" opacity="0.65" stroke-linejoin="round"/>
<polyline points="72.0,161.5 145.5,155.5 218.9,161.0 292.4,159.9 365.8,160.0 439.3,159.8 512.7,161.6 586.2,158.9 659.6,158.9 733.1,154.6 806.5,155.6 880.0,158.5" fill="none" stroke="#f87171" stroke-width="1.8" opacity="0.65" stroke-linejoin="round"/>
<circle cx="72.0" cy="206.4" r="4.5" fill="#f8fafc" stroke="#09111f" stroke-width="1.5"/>
<text x="72.0" y="376.0" fill="#94a3b8" font-family="Inter, -apple-system, BlinkMacSystemFont, Segoe UI, sans-serif" font-size="10" font-weight="400" text-anchor="middle">2025-01</text>
<circle cx="145.5" cy="202.1" r="4.5" fill="#f8fafc" stroke="#09111f" stroke-width="1.5"/>
<circle cx="218.9" cy="204.8" r="4.5" fill="#f8fafc" stroke="#09111f" stroke-width="1.5"/>
<circle cx="292.4" cy="203.9" r="4.5" fill="#f8fafc" stroke="#09111f" stroke-width="1.5"/>
<circle cx="365.8" cy="202.4" r="4.5" fill="#f8fafc" stroke="#09111f" stroke-width="1.5"/>
<text x="365.8" y="376.0" fill="#94a3b8" font-family="Inter, -apple-system, BlinkMacSystemFont, Segoe UI, sans-serif" font-size="10" font-weight="400" text-anchor="middle">2025-05</text>
<circle cx="439.3" cy="203.0" r="4.5" fill="#f8fafc" stroke="#09111f" stroke-width="1.5"/>
<circle cx="512.7" cy="200.7" r="4.5" fill="#f8fafc" stroke="#09111f" stroke-width="1.5"/>
<circle cx="586.2" cy="207.7" r="4.5" fill="#f8fafc" stroke="#09111f" stroke-width="1.5"/>
<circle cx="659.6" cy="208.4" r="4.5" fill="#f8fafc" stroke="#09111f" stroke-width="1.5"/>
<circle cx="733.1" cy="202.9" r="4.5" fill="#f8fafc" stroke="#09111f" stroke-width="1.5"/>
<circle cx="806.5" cy="203.6" r="4.5" fill="#f8fafc" stroke="#09111f" stroke-width="1.5"/>
<circle cx="880.0" cy="203.4" r="4.5" fill="#f8fafc" stroke="#09111f" stroke-width="1.5"/>
<text x="880.0" y="376.0" fill="#94a3b8" font-family="Inter, -apple-system, BlinkMacSystemFont, Segoe UI, sans-serif" font-size="10" font-weight="400" text-anchor="middle">2025-12</text>
<circle cx="82" cy="382" r="5" fill="#f8fafc"/>
<text x="94.0" y="386.0" fill="#d7dde8" font-family="Inter, -apple-system, BlinkMacSystemFont, Segoe UI, sans-serif" font-size="12" font-weight="400" text-anchor="start">α semantic lean</text>
<rect x="227" y="375" width="15" height="12" fill="#334155" opacity="0.72"/>
<text x="250.0" y="386.0" fill="#d7dde8" font-family="Inter, -apple-system, BlinkMacSystemFont, Segoe UI, sans-serif" font-size="12" font-weight="400" text-anchor="start">document count</text>
<line x1="387.0" y1="382.0" x2="417.0" y2="382.0" stroke="#60a5fa" stroke-width="2"/>
<text x="424.0" y="386.0" fill="#d7dde8" font-family="Inter, -apple-system, BlinkMacSystemFont, Segoe UI, sans-serif" font-size="12" font-weight="400" text-anchor="start">cos optimism</text>
<line x1="530.0" y1="382.0" x2="560.0" y2="382.0" stroke="#f87171" stroke-width="2"/>
<text x="567.0" y="386.0" fill="#d7dde8" font-family="Inter, -apple-system, BlinkMacSystemFont, Segoe UI, sans-serif" font-size="12" font-weight="400" text-anchor="start">cos doom</text>
<text x="72.0" y="410.0" fill="#cbd5e1" font-family="Inter, -apple-system, BlinkMacSystemFont, Segoe UI, sans-serif" font-size="13" font-weight="700" text-anchor="start">Correct reading: no meaningful semantic drift</text>
</svg>